<?xml version="1.0" encoding="UTF-8" standalone="no"?>
<!-- Created with Inkscape (http://www.inkscape.org/) -->

<svg
   xmlns:dc="http://purl.org/dc/elements/1.1/"
   xmlns:cc="http://creativecommons.org/ns#"
   xmlns:rdf="http://www.w3.org/1999/02/22-rdf-syntax-ns#"
   xmlns:svg="http://www.w3.org/2000/svg"
   xmlns="http://www.w3.org/2000/svg"
   xmlns:sodipodi="http://sodipodi.sourceforge.net/DTD/sodipodi-0.dtd"
   xmlns:inkscape="http://www.inkscape.org/namespaces/inkscape"
   width="410mm"
   height="410mm"
   viewBox="0 0 410 410"
   version="1.1"
   id="svg8"
   inkscape:version="0.92.1 r15371"
   sodipodi:docname="andlit.svg">
  <defs
     id="defs2" />
  <sodipodi:namedview
     id="base"
     pagecolor="#ffffff"
     bordercolor="#666666"
     borderopacity="1.0"
     inkscape:pageopacity="0.0"
     inkscape:pageshadow="2"
     inkscape:zoom="0.4096226"
     inkscape:cx="767.54553"
     inkscape:cy="742.23838"
     inkscape:document-units="mm"
     inkscape:current-layer="layer1"
     showgrid="false"
     inkscape:window-width="1680"
     inkscape:window-height="987"
     inkscape:window-x="-8"
     inkscape:window-y="-8"
     inkscape:window-maximized="1" />
  <metadata
     id="metadata5">
    <rdf:RDF>
      <cc:Work
         rdf:about="">
        <dc:format>image/svg+xml</dc:format>
        <dc:type
           rdf:resource="http://purl.org/dc/dcmitype/StillImage" />
        <dc:title></dc:title>
      </cc:Work>
    </rdf:RDF>
  </metadata>
  <g
     inkscape:label="Layer 1"
     inkscape:groupmode="layer"
     id="layer1"
     transform="translate(0,113)">
    <path
       inkscape:connector-curvature="0"
       id="path432"
       style="fill:#000000;stroke-width:0.26458332"
       d="m 172.47467,163.11853 c -2.48065,0.42709 -4.98038,0.74017 -7.49109,0.91768 -1.41757,0.089 -2.83352,0.0461 -4.24143,0.2373 0,0 7.66442,-5.68341 7.66442,-5.68341 v 0 c 1.40858,-0.0855 2.82,-0.0958 4.22756,-0.20327 2.50527,-0.21154 5.01187,-0.49678 7.46447,-1.06627 0,0 -7.62393,5.79797 -7.62393,5.79797 z m 1.97309,-5.22331 c 9.47297,0.3568 18.94988,0.0538 28.4214,-0.18012 15.36508,-0.40934 30.73434,-0.60894 46.10375,-0.76102 10.48819,-0.10542 20.97638,-0.0601 31.4602,-0.40436 3.55505,-0.16099 7.11804,-0.18568 10.66094,-0.53449 0,0 -7.57023,5.58869 -7.57023,5.58869 v 0 c -3.46948,0.186 -6.94507,0.18804 -10.4175,0.29922 -10.35994,0.21712 -20.7206,0.0543 -31.08215,0.10723 -15.35156,0.0713 -30.70388,0.23609 -46.04815,0.74356 -9.75855,0.32602 -19.51576,0.6472 -29.27927,0.77272 0,0 7.75101,-5.63143 7.75101,-5.63143 z m -4.55677,-0.58996 c -3.74516,0.60204 -15.71434,7.62794 -2.05697,-0.15619 -1.95289,1.25108 -4.39485,2.35713 -5.37289,4.60021 -0.0253,1.6823 1.34821,3.1468 2.34173,4.39436 1.432,1.71445 2.3212,2.10503 4.4218,2.63345 6.59097,0.8749 13.2792,0.81122 19.91695,0.89742 7.85319,-0.0749 15.69992,0.15642 23.54843,0.37809 6.75812,0.17425 13.51866,0.2128 20.27866,0.23518 6.55029,-0.0241 13.10346,0.0888 19.65183,-0.0907 6.73261,-0.264 13.45382,-0.7286 20.18882,-0.95736 5.4351,-0.1292 10.85999,-0.5115 16.28845,-0.79518 1.24219,-0.13298 1.73664,-0.0813 2.85003,-0.55301 0.31398,-0.133 1.18177,-0.68093 0.88345,-0.51575 -2.5042,1.3866 -4.94057,2.901 -7.50134,4.18018 -0.25368,0.12671 0.38415,-0.42823 0.5044,-0.68503 0.14185,-0.30293 0.17939,-0.64448 0.26909,-0.96671 0.13639,-2.63232 -0.50216,-5.24785 -1.30149,-7.73904 -0.16872,-0.37743 -0.33713,-0.94578 -0.73401,-1.19172 -1.18144,-0.73219 -5.14355,-0.67089 -6.4137,-0.73033 -6.65963,-0.19121 -13.3234,-0.14755 -19.98453,-0.0756 -1.03753,0.0575 -2.78713,0.0804 -3.87174,0.37543 -0.37359,0.10164 -1.39754,0.66496 -1.05899,0.47712 7.94296,-4.40716 9.09971,-6.259 6.7259,-3.049 0,0 -8.68887,3.82948 -8.68887,3.82948 v 0 c 3.10541,-5.81566 8.7902,-7.05539 14.37792,-7.07407 6.67907,0.0333 13.35863,-0.007 20.03717,0.0895 1.99215,0.0763 5.42451,-0.16759 7.09279,1.24447 0.48329,0.40904 0.64146,0.97213 0.87495,1.52541 0.79206,2.6474 1.37459,5.38401 1.49987,8.15007 -0.50874,4.94766 -2.96135,3.87123 -9.28671,7.57193 -1.12369,0.65741 -2.61554,0.54957 -3.84313,0.68834 -5.3685,0.205 -10.73205,0.5366 -16.10385,0.64897 -6.74868,0.25342 -13.48451,0.72731 -20.23271,0.97692 -6.5422,0.14404 -13.08623,0.0233 -19.62956,0.0426 -6.76972,-0.0243 -13.5402,-0.0515 -20.30774,-0.24246 -7.77937,-0.22426 -15.55511,-0.59108 -23.34053,-0.50745 -6.83582,-0.0432 -13.74293,0.1728 -20.52863,-0.74726 -2.15875,-0.60016 -3.35562,-1.37287 -4.76119,-3.1428 -1.21518,-1.55144 -2.57606,-3.17971 -2.82681,-5.19954 0.16342,-0.67413 0.19207,-1.03629 0.59843,-1.63888 1.12375,-1.66645 3.08325,-2.60953 4.70153,-3.67971 5.86464,-3.37015 11.7388,-7.34124 18.41712,-8.99924 0,0 -7.62393,5.79798 -7.62393,5.79798 z m 7.06804,-8.45644 c 1.96341,0.034 3.9273,0.0192 5.89089,0.0121 1.57392,0.16497 3.03734,-0.3124 4.54315,-0.66404 1.5547,-0.43777 3.22664,-0.27204 4.69352,-0.97847 3.24838,-1.49101 1.14868,-0.54719 -7.17535,4.13519 -0.19568,0.11007 0.33791,-0.13105 0.9709,-0.71623 0.40557,-0.37492 0.67451,-0.69972 1.0417,-1.11384 0.88704,-1.00679 1.7758,-2.0073 2.53349,-3.11643 0.83933,-1.06422 1.68939,-2.11567 2.4913,-3.21114 2.53144,-3.42707 6.61744,-5.99333 10.85592,-6.55264 1.31028,-0.11934 2.62792,-0.0884 3.94185,-0.0812 1.70536,-0.14895 3.29743,0.17047 4.93436,0.59424 1.48183,0.28799 2.9103,0.6265 4.13572,1.53494 1.1027,0.80644 1.94257,1.68279 2.46661,2.95314 0.3425,1.09657 0.70136,2.1739 0.89269,3.30937 0.1508,1.03691 0.90023,1.15661 1.80286,1.26779 1.37338,0.10081 2.75271,0.0778 4.1288,0.0694 1.3825,-0.0104 2.765,-0.0219 4.14754,-0.0183 2.47493,0.11204 4.92877,-0.22953 7.36877,-0.59862 1.00015,-0.25101 1.30063,-0.27745 2.21988,-0.68685 0.30367,-0.13524 1.17214,-0.62746 0.88366,-0.46227 -13.16275,7.53668 -8.8561,5.38211 -6.27942,3.37404 0.93779,-0.78837 1.14406,-1.87849 1.25465,-3.03547 0.008,-1.37934 0.12301,-2.73465 0.58957,-4.0391 4.65683,-7.26225 8.97003,-6.85368 12.79635,-2.67696 1.68201,1.95406 2.58927,4.37274 3.65657,6.68218 0.69039,1.43375 1.01406,2.96939 1.16009,4.54176 0.0224,0.13312 0.0841,0.74472 0.24017,0.88541 0.41294,0.3724 4.5322,0.49494 4.89227,0.51476 6.44364,0.27961 12.88422,-0.31504 19.30976,-0.73223 0.84566,-0.0841 1.69132,-0.16831 2.53698,-0.25246 0,0 -7.47263,5.53008 -7.47263,5.53008 v 0 c -0.83213,0.0636 -1.66426,0.12712 -2.49639,0.19068 -6.48015,0.3593 -12.96649,0.91928 -19.46123,0.71559 -1.57019,-0.0721 -4.53014,0.16495 -5.68748,-1.25795 -0.23664,-0.29094 -0.30008,-0.83384 -0.3688,-1.17535 -0.092,-1.47504 -0.33001,-2.92323 -0.95053,-4.28043 -0.97664,-2.23111 -1.82347,-4.57144 -3.46511,-6.41879 -0.71403,-0.70985 -0.82396,-0.91835 -1.67629,-1.40676 -0.25647,-0.14696 -0.52431,-0.28154 -0.80732,-0.36685 -0.19623,-0.0591 -0.78295,0.0519 -0.61183,-0.0609 6.2446,-4.11566 10.56629,-5.63002 7.1371,-4.39796 -0.71572,1.10928 -0.747,2.42266 -0.74357,3.7108 -0.0622,1.29962 -0.15608,2.62467 -0.96293,3.70616 -0.42422,0.4428 -0.59154,0.67456 -1.13687,0.9974 -4.29601,2.54333 -7.47085,5.30263 -12.13574,6.07593 -2.49875,0.34411 -5.00757,0.61459 -7.53461,0.55417 -1.38275,0.0104 -2.76556,0.0139 -4.14834,0.0188 -1.42247,-0.002 -2.86221,0.0369 -4.26721,-0.21532 -1.20309,-0.33915 -2.13857,-0.96073 -2.40464,-2.26275 -0.15108,-1.07603 -0.48811,-2.08394 -0.78968,-3.12267 -0.41143,-1.10493 -1.21771,-1.79582 -2.17156,-2.46277 -1.18884,-0.72878 -2.56659,-0.95259 -3.90546,-1.27773 -1.59464,-0.37249 -3.18427,-0.463 -4.82081,-0.39149 -1.28133,0.007 -2.58215,-0.0157 -3.83864,0.27031 -2.9138,0.97174 -8.69618,4.95909 6.77795,-4.14853 0.14589,-0.0859 -0.303,0.15509 -0.43744,0.25796 -0.36926,0.28253 -0.46451,0.48379 -0.73323,0.86534 -0.90318,1.00288 -1.51255,2.23004 -2.5308,3.13432 -0.75945,1.14914 -1.5568,2.24208 -2.49265,3.25489 -1.38893,1.46846 0.31358,-0.3734 -0.99303,1.17623 -2.57288,3.05145 -6.54434,4.70658 -10.22424,6.11309 -1.55998,0.37914 -3.18184,0.4388 -4.73172,0.88089 -1.5426,0.38136 -3.08069,0.59563 -4.67594,0.48194 -1.97473,-0.007 -3.94974,-0.0215 -5.9243,0.0121 0,0 7.76072,-5.63849 7.76072,-5.63849 z m 140.1646,48.44398 c 3.24765,-0.0274 6.5079,0.2209 9.75426,0.10255 1.07569,-0.0392 2.14685,-0.15957 3.22029,-0.23937 3.03261,-0.62402 4.54631,-0.77737 7.46689,-2.07674 1.45793,-0.64865 3.1813,-1.05407 4.21476,-2.26994 0.74573,-0.87733 -3.64644,2.22967 -3.25893,1.14541 0.68154,-1.90698 3.01445,-2.71716 4.36118,-4.22958 1.43788,-1.61472 2.64779,-3.41884 3.97166,-5.12828 1.12951,-1.9888 2.39253,-3.9075 3.38852,-5.96641 4.55322,-9.41223 6.33283,-20.06149 7.21561,-30.38922 0.28374,-3.31939 0.37743,-6.6523 0.56616,-9.97845 0.41206,-18.09692 -0.31488,-36.19468 -1.05804,-54.273559 -0.23786,-5.96622 -0.70491,-11.91007 -1.54337,-17.82002 -0.25818,-1.36803 -0.28139,-2.73201 -0.23908,-4.11605 0,0 8.46312,-4.25694 8.46312,-4.25694 v 0 c -0.10096,1.34068 -0.0696,2.64059 0.14738,3.97388 0.67685,6.0638 0.78713,12.15679 0.90199,18.25456 0.22389,18.191825 0.72739,36.382479 0.59817,54.576639 -0.12282,3.31285 -0.14283,6.63112 -0.36849,9.93856 -0.7072,10.36409 -2.41898,21.06937 -6.81373,30.5709 -0.96383,2.08381 -2.18956,4.03622 -3.28433,6.0543 -2.27465,3.07163 -4.93345,7.16704 -8.09069,9.51693 -2.59768,1.93339 -11.40286,7.89173 -16.30932,9.94154 -3.06694,1.2813 -4.55385,1.39493 -7.71805,1.98101 -4.44516,0.3011 -8.89307,0.25384 -13.3467,0.32676 0,0 7.76074,-5.63848 7.76074,-5.63848 z m -183.94232,78.80927 c 8.10469,0.97147 16.28715,1.09688 24.43882,1.30778 15.27258,0.2816 30.54854,0.29144 45.82311,0.36446 17.76117,0.0773 35.52238,0.0196 53.28332,-0.0751 8.34565,-0.0356 16.6905,-0.16039 25.03579,-0.23344 2.73654,-0.26514 6.09741,0.45448 8.71615,-0.41857 2.90404,-2.28878 -0.0553,0.0836 -7.2907,4.05741 -0.13227,0.0727 0.21987,-0.21098 0.30078,-0.33835 0.28691,-0.45159 0.30945,-1.01377 0.36062,-1.52659 0.15261,-1.9223 -1.28074,-3.41312 -2.41816,-4.79457 -3.21458,-3.0073 -6.72057,-5.68338 -10.03277,-8.58406 -3.62591,-3.33721 -7.89158,-6.36736 -10.27063,-10.81198 -0.43376,-0.8104 -0.73164,-1.68646 -1.09746,-2.52969 -0.14089,-0.92704 -0.42673,-1.84351 -0.42267,-2.78116 0.0287,-6.61469 6.27748,-12.71919 10.33001,-17.30508 7.534,-8.01772 15.87441,-15.37475 25.3583,-21.02223 4.33326,-2.5804 8.76154,-4.99774 13.1423,-7.49665 5.75681,-3.11793 11.89318,-5.38781 18.01014,-7.66879 0,0 -7.21104,5.63708 -7.21104,5.63708 v 0 c -5.98305,2.16017 -11.94853,4.40172 -17.5402,7.47395 0.53855,-0.35629 2.16164,-1.4138 1.6157,-1.06889 -1.96689,1.24243 -3.96452,2.43967 -5.87872,3.76182 -5.48558,3.78891 -10.53831,8.10313 -15.27411,12.78509 -1.36977,1.35419 -2.68434,2.76312 -4.0265,4.14467 -3.7616,4.25204 -10.05706,10.35185 -10.32372,16.43912 -0.0376,0.85812 0.20263,1.7059 0.30394,2.55887 0.34206,0.79856 0.6211,1.62724 1.02618,2.39577 2.31,4.38282 6.48709,7.38116 10.09947,10.6008 3.42273,2.88025 7.0403,5.53746 10.30431,8.59681 1.30034,1.52183 2.90811,3.23903 2.88226,5.36784 -0.16018,5.05108 -3.02747,6.05333 -9.55336,7.90419 -2.86037,0.39354 -5.77873,-0.0249 -8.654,0.10425 -8.13455,-0.0715 -16.26865,-0.19442 -24.40356,-0.2258 -17.6938,-0.0888 -35.38777,-0.13417 -53.08178,-0.0724 -15.39855,0.0466 -30.79769,0.0631 -46.19558,-0.11451 -8.3714,-0.11827 -16.73805,-0.34131 -25.09755,-0.80767 0,0 7.74131,-5.62438 7.74131,-5.62438 z M 69.881177,276.748 c 6.402218,0.13596 12.806302,0.15412 19.209682,0.1834 10.543454,0.0566 21.087201,0.0387 31.630681,-0.003 4.81544,0.0326 9.63178,-0.0768 14.42965,-0.4908 0,0 -7.46565,5.50426 -7.46565,5.50426 v 0 c -4.73077,0.25212 -9.46961,0.30493 -14.20676,0.24874 -10.54135,-0.0414 -21.082966,-0.0585 -31.624281,-0.003 -6.571705,0.0297 -13.144016,0.05 -19.714623,0.18343 0,0 7.741301,-5.62438 7.741301,-5.62438 z M 66.260524,142.03165 c -0.509678,14.32847 -0.651529,28.66706 -0.79389,43.00282 -0.139235,24.98466 -0.253926,49.96913 -0.423628,74.95365 -0.32222,7.21844 0.381035,14.59643 -0.866534,21.7568 -0.09803,0.30609 -0.196053,0.61222 -0.294081,0.91831 0,0 -8.670648,3.98976 -8.670648,3.98976 v 0 c 0.142939,-0.26414 0.285875,-0.5283 0.428813,-0.79243 0.548161,-2.00334 0.824101,-4.04026 1.023454,-6.10978 0.512191,-5.31717 0.693515,-10.66491 0.946417,-15.99753 1.00008,-25.05377 1.385197,-50.1214 0.939535,-75.19453 -0.141113,-14.06612 -0.277926,-28.13537 -0.793893,-42.19384 0,0 8.504455,-4.33323 8.504455,-4.33323 z M 335.88809,-43.619309 c 1.50026,1.26011 2.746,2.78739 3.75552,4.45981 0.75382,1.35517 1.00126,2.86337 1.12265,4.38632 0.0428,1.7788 0.13073,3.55988 -0.17968,5.31823 0,0 -8.6171,4.14287 -8.6171,4.14287 v 0 c 0.49725,-1.64195 0.31265,-3.3571 0.2859,-5.05352 -0.0715,-1.37926 -0.21724,-2.76001 -0.88077,-4.0002 -0.95369,-1.59303 -2.1069,-3.06652 -3.62188,-4.16615 0,0 8.13536,-5.08736 8.13536,-5.08736 z m -6.11275,5.49882 c -7.17767,-0.87099 -13.66512,-4.45638 -19.86658,-7.95184 -8.20254,-5.10624 -15.88059,-10.98821 -23.50247,-16.90981 -4.24092,-2.99188 -8.36079,-6.45317 -13.27392,-8.31682 -0.7071,-0.26821 -1.44231,-0.45547 -2.16346,-0.6832 -5.43107,-1.30167 -11.03441,-1.42748 -16.58824,-1.59714 -8.59258,-0.2632 -17.18615,0.0631 -25.77644,0.25836 -9.11734,0.16943 -18.23736,0.30373 -27.35566,0.16163 -10.86896,-0.19357 -21.72944,-0.66146 -32.59717,-0.90694 -6.04482,0.21876 -12.24832,-0.8088 -18.24927,0.32056 -0.68374,0.12868 -1.34711,0.34865 -2.02067,0.52297 -5.20415,2.70759 3.29039,-1.98524 4.99611,-2.86681 0.50737,-0.26223 -0.94681,0.64016 -1.40042,0.98719 -1.63032,1.24725 -3.13339,2.67764 -4.67385,4.03119 -4.83582,4.30608 -9.40813,8.90291 -13.97727,13.48865 -5.51251,5.60091 -10.8547,11.35414 -16.5019,16.82206 -3.21883,3.14698 -6.37933,6.35331 -9.60257,9.49535 -2.98785,2.77534 -5.56105,5.93785 -8.021137,9.17776 -2.83708,4.1447 -6.07818,8.08941 -8.328125,12.607 -0.466749,0.93717 -0.842489,1.91698 -1.26374,2.8754703 -1.946219,5.0095 -2.501339,10.34985 -2.749359,15.67206 -0.114689,3.9657197 -0.064,7.9335997 -0.0545,11.9003097 0.008,2.69918 0.02371,5.39827 0.0544,8.09727 0,0 -8.381023,4.27349 -8.381023,4.27349 v 0 c 0.01455,-2.70525 0.01251,-5.41049 -0.01228,-8.11569 -0.03752,-3.9847 -0.108506,-7.97251 0.04707,-11.9555 0.293839,-5.4322997 0.844495,-10.8868397 2.740031,-16.0314797 0.410382,-0.98615 0.772699,-1.9937 1.23113,-2.95845 2.16119,-4.5482403 5.399331,-8.4801903 8.14697,-12.6686403 2.403596,-3.28454 4.938666,-6.48095 7.893656,-9.29372 1.41852,-1.33206 2.726757,-2.75944 4.120637,-4.11408 1.8867,-1.83359 3.93673,-3.50306 5.69577,-5.46917 2.66127,-2.51754 5.32357,-5.05427 7.86663,-7.69216 2.92568,-3.03479 5.69461,-6.22448 8.73869,-9.14646 4.49103,-4.55692 8.98057,-9.1276 13.70415,-13.44413 1.52519,-1.34584 2.99537,-2.7921 4.56615,-4.08384 3.74594,-3.08047 8.05133,-5.61704 12.6159,-7.26102 0.68058,-0.13482 1.3546,-0.30848 2.04173,-0.40446 5.93787,-0.82943 11.985,0.20022 17.94049,0.058 10.89222,0.31757 21.78352,0.68275 32.6797,0.83329 9.12667,0.0982 18.25383,-0.0433 27.37899,-0.21812 8.63506,-0.19148 17.27114,-0.5046 25.90928,-0.29977 5.66312,0.12972 11.40373,0.21824 16.90874,1.70727 0.73376,0.26013 1.48325,0.47958 2.20129,0.78041 4.86347,2.03758 8.93453,5.58466 13.15355,8.64906 7.50882,5.96756 15.12925,11.84185 23.31823,16.85766 6.28248,3.42382 12.89082,6.87871 20.17861,7.26663 0,0 -7.76785,5.54559 -7.76785,5.54559 z m -82.23886,95.85517 c -0.4258,-1.90463 -0.67738,-3.83907 -1.16436,-5.72919 -0.38349,-1.39081 -1.44326,-1.39232 -2.69019,-1.50265 -2.01063,0.17635 -4.06185,0.52108 -5.88841,1.43034 -0.54751,0.27256 -1.05873,0.61264 -1.5881,0.91896 2.10907,-1.18189 4.16821,-2.45767 6.32722,-3.54565 0.61951,-0.31219 -1.13486,0.79838 -1.69301,1.21035 -2.41686,1.78389 -4.6892,3.71888 -6.89522,5.75468 -3.62288,3.49788 -7.07714,7.16477 -10.10668,11.19053 -2.15824,2.74677 -3.66567,5.89062 -5.30465,8.9523 -1.49393,2.71924 -3.58318,4.9513 -5.90933,6.9658 -5.42515,4.298786 -11.5909,7.397916 -17.6219,10.751096 -5.79219,2.603428 -12.06163,3.50263 -18.3153,4.17564 -5.92099,0.479799 -11.86989,0.65123 -17.80769,0.48926 -4.48194,-0.0476 -8.90843,-0.763532 -13.34778,-1.287952 -5.10158,-0.54111 -9.40222,-2.167758 -13.9471,-4.470508 -4.91635,-2.60292 -9.30353,-6.10223 -12.01861,-11.048696 -0.58587,-1.06734 -1.01548,-2.21329 -1.52321,-3.31993 -2.71665,-7.3318 -2.94478,-15.24553 -3.27242,-22.97357 -0.0309,-1.03002 -0.0618,-2.06004 -0.0927,-3.09007 0,0 8.19575,-4.19552 8.19575,-4.19552 v 0 c 0.008,1.03641 0.0165,2.07282 0.0247,3.10923 0.19838,7.62754 0.42661,15.41703 3.09489,22.6568 0.49191,1.06354 0.90705,2.16607 1.47574,3.19061 2.66714,4.80503 7.00653,8.133046 11.8247,10.592686 0.87842,0.42079 1.74188,0.87436 2.63527,1.26236 3.58082,1.55518 7.39833,2.39679 11.26182,2.86295 4.38528,0.55199 8.76453,1.23423 13.19533,1.28618 5.89186,0.1303 11.79631,-0.0207 17.66806,-0.54095 6.25951,-0.70961 12.51262,-1.75195 18.24019,-4.5223 -1.98353,1.19249 -3.98302,2.35883 -5.95059,3.57749 -0.59974,0.37146 1.24596,-0.66406 1.84591,-1.03517 1.95733,-1.21078 3.73876,-2.69628 5.68333,-3.92732 2.36997,-1.97647 4.42933,-3.935856 6.02087,-6.625046 0.89121,-1.68788 0.4194,-0.83973 1.41933,-2.54229 1.22449,-2.26544 2.2956,-4.60581 3.97114,-6.60043 2.98212,-4.09364 6.44389,-7.77831 10.0369,-11.34138 5.43779,-5.22332 11.38368,-9.46534 18.20691,-12.8536 2.51778,-1.25705 5.10921,-2.15284 7.9668,-1.97914 1.58808,0.26934 2.81277,0.8079 3.29034,2.47425 0.46492,1.89453 0.67861,3.83294 1.18742,5.71816 0,0 -8.43538,4.56169 -8.43538,4.56169 z m 121.67643,-80.65254 c 0.0328,2.74047 0.4929,5.45065 1.01071,8.13427 0.82188,3.00018 1.15613,6.06973 1.31215,9.1656303 0.15946,4.23969 0.16312,8.4842 0.18084,12.72649 0.04,3.2128897 0.0262,6.4259297 0.0243,9.6389297 -0.11109,3.45286 -0.675,6.87737 -1.59371,10.20277 -1.30048,3.84346 -3.10171,7.49042 -5.1222,11.00036 -1.91815,3.24306 -3.72142,6.54764 -5.87404,9.64401 -2.25769,2.79224 -5.16636,4.93532 -7.75584,7.39723 -2.47319,2.43461 -4.87572,4.93065 -7.59854,7.0906 -4.90149,3.29775 -9.98916,6.39668 -15.35311,8.87741 -2.59887,1.32966 -5.36837,2.26661 -8.06715,3.36509 -3.23702,1.71353 -6.41286,3.50632 -9.76432,4.99253 -2.82786,1.22211 -5.88039,1.37571 -8.9118,1.47584 -3.88101,0.0616 -7.76266,0.0313 -11.64391,0.0185 -3.97907,-0.0144 -7.95819,-0.0132 -11.93728,-0.0222 -3.60626,-0.0344 -7.12544,-0.88164 -10.67387,-1.42451 -2.69219,-0.19341 -5.2315,-1.03043 -7.71441,-2.03291 -1.98573,-1.05689 -3.84137,-2.29305 -5.49466,-3.81802 -1.21789,-1.3866 -1.9972,-3.04366 -2.73487,-4.71363 -0.91289,-2.00934 -1.57214,-4.12468 -2.21214,-6.2336 -0.42268,-1.63447 -1.05465,-3.19638 -1.39716,-4.85205 -0.27987,-1.36789 -0.16907,-2.7701 -0.31451,-4.14963 0.45808,0.75384 -0.22722,-0.70864 -0.16978,-0.53168 1.0988,3.38491 3.93497,-1.75976 8.23164,-3.89148 0.15093,-0.0749 -0.16996,0.29184 -0.23741,0.44624 -0.0719,0.16465 -0.11971,0.33883 -0.17957,0.50824 -0.18137,0.76409 -0.25615,1.53572 -0.48239,2.28911 0,0 -8.7448,3.98625 -8.7448,3.98625 v 0 c 0.46519,-0.65359 0.46643,-1.36966 0.56007,-2.14968 0.013,-0.0614 0.21924,-1.12254 0.30339,-1.17817 2.94234,-1.94509 8.16145,-8.52588 9.20505,-3.93716 0.19393,1.35698 0.0626,2.73839 0.28511,4.09602 0.28556,1.64128 0.89143,3.18565 1.28404,4.80105 0.61693,2.07256 1.27027,4.14858 2.19007,6.10941 0.68747,1.546 1.37901,3.10768 2.52996,4.37779 1.57449,1.43167 3.33718,2.62051 5.25015,3.55974 2.4525,0.93491 4.96071,1.62532 7.58393,1.87778 3.48401,0.59933 6.95972,1.38676 10.51577,1.35194 3.98047,-0.003 7.96094,0.009 11.94139,0.0218 3.88665,0.0107 7.77531,0.0468 11.66032,-0.0855 2.98238,-0.16583 5.95421,-0.46517 8.69434,-1.76063 3.33092,-1.5331 6.47872,-3.402 9.79297,-4.96674 2.7111,-1.08755 5.45901,-2.09438 8.05937,-3.43702 2.99182,-1.49891 8.48002,-4.74085 -4.44236,2.76627 -0.40404,0.23473 0.80105,-0.48151 1.1979,-0.72826 0.39971,-0.24855 0.79444,-0.50503 1.19166,-0.75754 0.40804,-0.25165 0.81605,-0.50329 1.22409,-0.75493 2.82049,-2.0502 5.22481,-4.55303 7.69012,-7.00508 2.52476,-2.49996 5.36802,-4.64192 7.80201,-7.23543 2.24758,-3.02959 4.01259,-6.34702 5.94217,-9.58051 2.05846,-3.42393 3.83352,-7.01438 5.19697,-10.77451 0.96753,-3.23409 1.50281,-6.57324 1.66878,-9.94668 0.005,-3.22369 0.004,-6.44735 0.0431,-9.67089 0.006,-4.2242697 0.0212,-8.4505097 -0.17407,-12.6714997 -0.19309,-3.04294 -0.50932,-6.07152 -1.32207,-9.0220403 -0.50498,-2.73091 -0.97287,-5.4684 -1.19303,-8.23976 0,0 8.53651,-4.34958 8.53651,-4.34958 z m -244.0847,45.46679 c 1.47707,-2.60197 2.60061,-5.3548 3.38955,-8.23586 0.87833,-4.25759 0.94013,-8.6261697 1.01239,-12.9565497 -0.0417,-3.80372 0.49289,-7.32835 1.76666,-10.9045803 2.15313,-5.06629 5.70504,-9.30779 9.38774,-13.32616 1.81619,-1.85783 3.27264,-3.46536 5.32391,-5.08301 4.05057,-3.19431 11.2886,-6.82039 14.76245,-8.47467 2.17789,-1.03713 6.69475,-1.78758 8.96827,-2.24454 10.78777,-1.53918 21.72787,-1.72143 32.59809,-1.24578 10.8066,0.59632 21.53244,2.06131 32.28351,3.25037 6.41655,0.70374 12.85485,1.19712 19.30577,1.42457 2.76292,0.0676 5.52705,0.0653 8.29061,0.0874 7.09732,0.0705 14.1949,0.0923 21.29253,0.0888 6.20884,-0.003 12.41745,-0.0615 18.62616,-0.0955 4.87723,-0.0166 9.75448,0.0188 14.63167,0.0371 5.62446,0.12772 11.23985,-0.19735 16.85671,-0.42777 3.60492,-0.16501 7.21236,-0.2457 10.82061,-0.2828 2.58107,-0.0199 5.16221,-0.0151 7.7433,-0.0252 1.67876,-0.005 3.35751,-0.021 5.03624,-0.009 1.60404,-0.0178 3.18098,-0.0694 4.75776,0.24089 1.32522,0.21772 2.53236,0.72464 3.48882,1.67206 0.89943,1.26254 1.23119,2.84169 1.49583,4.34497 0.27096,1.32352 0.70045,2.60212 1.07719,3.89648 0.49811,1.0693 0.82974,2.17651 1.0137,3.33912 0,0 -8.48849,4.47874 -8.48849,4.47874 v 0 c -0.14425,-1.13072 -0.44956,-2.19881 -0.94414,-3.23044 -0.36933,-1.33495 -0.83346,-2.64029 -1.10313,-4.00311 -0.2046,-1.29338 -0.45728,-2.68952 -1.21502,-3.78106 -0.89313,-0.75831 -2.04105,-1.02587 -3.17809,-1.21186 -1.53602,-0.22084 -3.09044,-0.10019 -4.63751,-0.12772 -1.66767,0.0106 -3.33537,-0.007 -5.00304,-0.0154 -2.56405,-0.0134 -5.12812,-0.0142 -7.6922,-0.001 -3.56002,0.0252 -7.11981,0.0862 -10.67779,0.21375 -5.60226,0.20759 -11.20376,0.44901 -16.81184,0.35028 -4.91106,0.0181 -9.8222,0.0533 -14.73329,0.0368 -6.12347,-0.0336 -12.24685,-0.0918 -18.37049,-0.0899 -7.1953,0.002 -14.39058,0.0301 -21.58533,0.12537 -2.77638,0.0302 -5.55637,0.0862 -8.32814,-0.1204 -6.32591,-0.41631 -12.63843,-1.02246 -18.9349,-1.75901 -10.70883,-1.22592 -21.39519,-2.72267 -32.16989,-3.2534 -10.8674,-0.40054 -21.81288,-0.24614 -32.57106,1.5011 -1.55688,0.3475 -3.13301,0.61783 -4.67063,1.04249 -1.438,0.39714 -3.92631,2.87718 -4.24437,1.41964 -0.34087,-1.56209 2.70312,-1.71734 3.96521,-2.69889 1.01253,-0.78745 -2.19051,1.34284 -3.21463,2.11516 -0.98384,0.74194 -1.89662,1.57593 -2.79633,2.41791 -0.87515,0.819 -1.68268,1.70739 -2.52403,2.56108 -3.62693,3.88941 -7.0927,8.00638 -9.30281,12.89299 -1.37136,3.52825 -1.93327,6.8474203 -1.95042,10.6409703 -0.0834,4.38289 -0.1707,8.78512 -0.8603,13.1233897 -0.6864,2.91871 -1.76542,5.69484 -3.15724,8.3528 0,0 -8.72957,3.94953 -8.72957,3.94953 z m -33.988896,38.23219 c 7.514049,-2.14213 15.359706,-2.717 23.089696,-3.61117 6.93363,-0.7983 13.88636,-1.41131 20.84272,-1.96982 0,0 -7.27318,5.36626 -7.27318,5.36626 v 0 c -6.87719,0.4578 -13.74937,1.00372 -20.59321,1.83508 -7.960167,0.97795 -15.990936,1.79824 -23.692901,4.15431 0,0 7.626875,-5.77466 7.626875,-5.77466 z m 34.273426,-36.19887 c -5.57103,2.48761 -11.70664,3.27158 -17.67427,4.27302 -7.953877,1.3308 -15.964456,2.29718 -23.999233,2.97259 -3.684677,0.27141 -1.944327,0.11148 -5.222777,0.46048 0,0 7.500028,-5.5549 7.500028,-5.5549 v 0 c 3.195531,-0.24641 1.498862,-0.12657 5.090596,-0.3509 7.988839,-0.63287 15.951066,-1.59326 23.849026,-2.96179 6.07612,-1.07461 12.36677,-1.9517 17.90014,-4.84582 0,0 -7.44351,6.00732 -7.44351,6.00732 z m -50.825041,30.98384 c 0.844011,-6.54239 1.050955,-13.14212 1.260536,-19.72831 0.340948,-9.54761 0.282504,-19.08822 -0.243194,-28.6254897 -0.436864,-6.29399996 -1.298744,-12.54628 -1.864336,-18.8290203 -0.160168,-1.89261 -0.2817,-3.78845 -0.358865,-5.68626 -0.03985,-0.98008 -0.116729,-2.1354 0.05509,-3.11089 0.108214,-0.61439 0.324868,-1.20465 0.487301,-1.80697 0.367615,-0.72331 0.685517,-1.47411 1.102844,-2.16992 1.354175,-2.25781 2.589398,-3.71752 4.416156,-5.69373 4.210208,-4.55467 8.98652,-8.30685 13.849112,-12.13083 16.273127,-12.17898 34.024227,-22.11565 51.723187,-32.01996 6.51262,-3.36486 13.05181,-6.6799 19.63237,-9.90997 0,0 -7.1335,5.69291 -7.1335,5.69291 v 0 c -6.39045,3.07249 -12.74603,6.21949 -19.04004,9.48549 -2.1266,-2.36843 -0.14488,-0.26899 -7.84663,4.28951 -10.08182,5.96722 -19.93975,12.32109 -29.37316,19.27436 -7.013157,5.51684 -14.492581,11.15137 -18.824429,19.15452 -0.178231,0.53891 -0.410631,1.06284 -0.534681,1.61673 -0.223681,0.9987 -0.153741,2.0081 -0.130781,3.01784 0.0432,1.90249 0.12009,3.80423 0.239631,5.70353 0.440028,6.33711 1.2417,12.6401103 1.63218,18.9806003 0.41443,9.5719497 0.459909,19.1436797 0.202369,28.7224297 -0.133479,6.50938 -0.298558,13.01794 -0.66761,19.51887 0,0 -8.583549,4.25456 -8.58355,4.25456 z m -43.176332,14.82759 c 0.903745,-2.18247 1.313484,-4.50781 1.582417,-6.84083 0.235291,-2.48718 0.238853,-4.98754 0.247296,-7.48335 -0.01111,-2.8398 0.01103,-5.67918 0.04864,-8.5187 -0.382755,-5.90733 -1.046523,-11.79154 -1.436918,-17.70051 -0.222515,-5.56226 -0.612082,-11.11581 -0.844868,-16.67752 -0.285202,-5.0368797 -0.623371,-10.0702297 -0.814093,-15.1118797 -0.107763,-2.93736 -0.172353,-5.8757003 -0.210302,-8.8146803 -0.07607,-2.07939 0.01786,-4.13828 0.342093,-6.19274 0.609838,-3.50179 1.944873,-6.76141 3.305151,-10.02304 2.581577,-5.78275 5.807848,-11.18052 9.475593,-16.32985 4.749009,-5.76128 9.921465,-11.24652 15.49418,-16.22569 1.467924,-1.31157 3.000666,-2.54875 4.501001,-3.82312 10.530301,-8.64621 22.242791,-15.43047 34.797386,-20.77262 7.333807,-3.12063 18.484927,-5.64195 26.026117,-7.5752 25.52669,-5.40375 51.53945,-7.914632 77.42036,-10.969921 2.24084,-0.29413 4.48167,-0.58827 6.72251,-0.8824 0,0 -6.94279,5.170759 -6.94279,5.170759 v 0 c -2.15749,0.22843 -4.31498,0.45685 -6.47247,0.68527 -25.66164,2.514192 -51.42935,4.905022 -76.6389,10.526572 -39.992681,10.66532 10.14537,-3.07011 -26.407446,8.02841 -0.860925,0.2614 -1.869906,-0.097 -2.683986,0.28611 -2.310178,1.08722 -4.369819,2.64401 -6.50779,4.03973 -5.670434,3.70178 -5.997519,4.12661 -11.174706,8.17103 -1.479669,1.24862 -2.993337,2.45802 -4.439007,3.74585 -5.495621,4.89558 -10.541188,10.33723 -15.285485,15.95125 -1.932866,2.66442 -3.815397,5.34392 -5.447175,8.20832 -1.185762,2.08148 -1.675308,3.21859 -2.725979,5.34748 -0.416012,0.84294 -0.840658,1.68159 -1.260986,2.52238 -1.308135,3.17915 -2.580664,6.34593 -3.20435,9.7424 -0.369467,1.99992 -0.477804,4.00872 -0.40594,6.04164 -0.02222,2.95648 -0.02703,5.9136 0.04057,8.8695803 0.140457,5.05093 0.387056,10.0971 0.74503,15.13756 0.237061,5.5663597 0.577575,11.1274897 0.765897,16.6959097 0.363575,5.90933 1.00412,11.78522 1.622994,17.67054 0.04297,2.82171 0.07914,5.64346 0.06593,8.46558 -0.01188,2.52578 -0.02405,5.05498 -0.214458,7.57489 -0.231267,2.38139 -0.609841,4.74751 -1.393502,7.01789 0,0 -8.69202,4.0429 -8.69202,4.0429 z M 15.760593,89.767357 c 0.251101,-3.13584 1.273406,-6.159216 2.929644,-8.838346 0.384929,-0.62266 0.849972,-1.19207 1.274959,-1.78811 2.438376,-3.04486 5.783032,-5.02516 9.116644,-6.9379 11.650427,-6.68472 8.330536,-4.8561 16.264184,-9.10451 8.256905,-4.4758 16.754432,-8.46301 25.637624,-11.52069 2.243622,-0.72211 4.637442,-1.56479 6.975237,-0.70738 0.95009,0.34846 1.444586,0.78903 2.258074,1.37246 1.670589,1.51338 3.270329,3.10447 4.731541,4.82108 1.796118,2.81127 1.786879,6.38617 2.007049,9.60721 0.223539,5.83041 0.37378,11.69401 -0.235381,17.509706 -0.428569,4.09162 -1.21616,8.15148 -1.925399,12.19838 -1.870059,8.753603 -4.715309,17.256573 -8.534593,25.350853 -2.407381,5.10201 -3.34749,6.57171 -6.087737,11.43971 -5.02861,8.29036 -11.209727,15.8139 -17.877415,22.82877 -4.377195,4.4517 -9.982732,9.2972 -16.110338,10.68859 -1.966823,0.38364 -3.936225,-0.0415 -5.890705,-0.29327 -1.468951,-0.25572 -2.633199,-0.987 -3.691927,-2.00035 -1.492761,-1.53054 -2.164829,-3.51944 -2.745441,-5.52617 -0.594275,-2.08082 -0.833289,-4.22012 -0.93894,-6.37276 -0.02339,-0.86306 -0.03714,-1.7205 -0.122232,-2.57961 0,0 8.479634,-4.43638 8.479634,-4.43638 v 0 c 0.102925,0.88425 0.118499,1.76071 0.117459,2.65148 0.0782,2.08396 0.257413,4.16738 0.800034,6.18976 0.528298,1.82566 1.137896,3.66576 2.536351,5.02445 1.01133,0.81347 2.044218,1.39675 3.36464,1.53747 1.879293,0.25312 3.776263,0.55154 5.635519,-0.0106 3.530791,-1.28573 1.36902,-0.56483 -6.160966,3.86 -0.389739,0.22902 0.785895,-0.44918 1.157706,-0.70628 1.873644,-1.29561 3.487362,-2.92311 5.110736,-4.50695 6.870288,-6.96133 13.215292,-14.48121 18.389354,-22.80387 2.8443,-4.95146 3.673142,-6.18789 6.171139,-11.38474 3.851537,-8.01278 6.710556,-16.43913 8.579438,-25.13282 0.717264,-4.249113 1.392549,-7.752683 1.798357,-12.028083 0.54365,-5.727606 0.368668,-11.495826 -0.04201,-17.223586 -0.279911,-2.98163 -0.333174,-6.34936 -1.98111,-8.95551 -1.378559,-1.66667 -2.866464,-3.24782 -4.530244,-4.63478 -0.798663,-0.50557 -1.138692,-0.8101 -2.054272,-1.05452 -2.175822,-0.58085 -4.401225,0.3504 -6.456191,0.93749 -8.778346,2.99169 -17.143968,6.97862 -25.277237,11.42556 -1.552736,0.8442 -2.974848,1.99412 -4.658206,2.53261 -1.409042,0.45073 2.591424,-1.43574 3.817437,-2.26366 0.99813,-0.67402 -2.103906,1.17419 -3.132333,1.80101 -1.60137,0.97603 -2.966905,1.88951 -4.356947,3.13692 -0.547047,0.49091 -1.03147,1.04743 -1.547206,1.57114 -0.439672,0.55091 -0.92645,1.06731 -1.319014,1.65272 -0.380313,0.56714 -0.675701,1.18718 -0.991407,1.79267 -1.081233,2.07369 -1.88236,4.17151 -1.959666,6.536736 0,0 -8.525841,4.34413 -8.525841,4.34413 z" />
  </g>
</svg>
